<svg width="128" height="128" viewBox="0 0 128 128" xmlns="http://www.w3.org/2000/svg"><rect width="128" height="128" rx="10" fill="none"/><path d="M42 32c-4 0-7 3-7 7v15c0 4-3 7-7 7 4 0 7 3 7 7v15c0 4 3 7 7 7h4" stroke="#007acc" stroke-width="8" fill="none" stroke-linecap="round" stroke-linejoin="round"/><path d="M84 32c4 0 7 3 7 7v15c0 4 3 7 7 7-4 0-7 3-7 7v15c0 4-3 7-7 7h-4" stroke="#f90" stroke-width="8" fill="none" stroke-linecap="round" stroke-linejoin="round"/><circle cx="64" cy="61" r="6" fill="#10b981"/><circle cx="64" cy="61" r="4" fill="#fff"/></svg>